<mxfile host="app.diagrams.net" modified="2023-04-05T00:17:20.864Z" agent="Mozilla/5.0 (Windows NT 10.0; Win64; x64) AppleWebKit/537.36 (KHTML, like Gecko) Chrome/110.0.0.0 YaBrowser/23.3.0.2246 Yowser/2.5 Safari/537.36" version="21.1.4" etag="rjvxQMCFgyOkthjA_5VB" type="github">
  <diagram name="Страница 1" id="t59zCIos1-Yz6X2QX7Jx">
    <mxGraphModel>
      <root>
        <mxCell id="0" />
        <mxCell id="1" parent="0" />
      </root>
    </mxGraphModel>
  </diagram>
</mxfile>
